HIERARCHY
ROOT Hips
{
  OFFSET -2.9740628571428576 95.22824285714285 -3.405862857142857
  CHANNELS 6 Xposition Yposition Zposition Zrotation Xrotation Yrotation
  JOINT LeftUpLeg
  {
    OFFSET 8.64259 1.9539799999999998 -2.3883499999999995
    CHANNELS 3 Zrotation Xrotation Yrotation
    JOINT LeftLeg
    {
      OFFSET 43.770199999999996 0.0 0.0
      CHANNELS 3 Zrotation Xrotation Yrotation
      JOINT LeftFoot
      {
        OFFSET 40.62380000000001 0.0 0.0
        CHANNELS 3 Zrotation Xrotation Yrotation
        JOINT LeftToeBase
        {
          OFFSET 12.724199999999998 0.0 0.0
          CHANNELS 3 Zrotation Xrotation Yrotation
          End Site
          {
            OFFSET 0.0 0.0 0.0
          }
        }
      }
    }
  }
  JOINT RightUpLeg
  {
    OFFSET -8.2249 1.9539799999999998 -2.59336
    CHANNELS 3 Zrotation Xrotation Yrotation
    JOINT RightLeg
    {
      OFFSET 43.56529999999999 0.0 0.0
      CHANNELS 3 Zrotation Xrotation Yrotation
      JOINT RightFoot
      {
        OFFSET 40.62380000000001 0.0 0.0
        CHANNELS 3 Zrotation Xrotation Yrotation
        JOINT RightToeBase
        {
          OFFSET 12.724199999999998 0.0 0.0
          CHANNELS 3 Zrotation Xrotation Yrotation
          End Site
          {
            OFFSET 0.0 0.0 0.0
          }
        }
      }
    }
  }
  JOINT Spine
  {
    OFFSET 0.16583 0.8771399999999999 6.61349
    CHANNELS 3 Zrotation Xrotation Yrotation
    JOINT Spine1
    {
      OFFSET 7.389628571428571 2e-05 0.0
      CHANNELS 3 Zrotation Xrotation Yrotation
      JOINT Spine2
      {
        OFFSET 11.944500000000001 1e-05 0.0
        CHANNELS 3 Zrotation Xrotation Yrotation
        JOINT Spine3
        {
          OFFSET 14.725400000000004 4e-05 0.0
          CHANNELS 3 Zrotation Xrotation Yrotation
          JOINT Spine4
          {
            OFFSET 10.9679 0.0 0.0
            CHANNELS 3 Zrotation Xrotation Yrotation
            JOINT RightShoulder
            {
              OFFSET 2.46616 -1.6653 3.69651
              CHANNELS 3 Zrotation Xrotation Yrotation
              JOINT RightArm
              {
                OFFSET 13.001199999999999 0.0 0.0
                CHANNELS 3 Zrotation Xrotation Yrotation
                JOINT RightForeArm
                {
                  OFFSET 28.784799999999997 2e-05 0.0
                  CHANNELS 3 Zrotation Xrotation Yrotation
                  JOINT RightHand
                  {
                    OFFSET 26.568800000000003 2e-05 0.0
                    CHANNELS 3 Zrotation Xrotation Yrotation
                    JOINT RightHandMiddle1
                    {
                      OFFSET 8.03675 -0.8865800000000001 0.7278700000000001
                      CHANNELS 3 Zrotation Xrotation Yrotation
                      JOINT RightHandMiddle2
                      {
                        OFFSET 2.7883299999999993 0.0 0.0
                        CHANNELS 3 Zrotation Xrotation Yrotation
                        JOINT RightHandMiddle3
                        {
                          OFFSET 2.4115500000000005 0.0 0.0
                          CHANNELS 3 Zrotation Xrotation Yrotation
                          End Site
                          {
                            OFFSET 0.0 0.0 0.0
                          }
                        }
                      }
                    }
                    JOINT RightHandRing1
                    {
                      OFFSET 7.979660000000002 -0.8867700000000002 -1.00486
                      CHANNELS 3 Zrotation Xrotation Yrotation
                      JOINT RightHandRing2
                      {
                        OFFSET 2.8636799999999996 0.0 0.0
                        CHANNELS 3 Zrotation Xrotation Yrotation
                        JOINT RightHandRing3
                        {
                          OFFSET 2.11079 0.0 0.0
                          CHANNELS 3 Zrotation Xrotation Yrotation
                          End Site
                          {
                            OFFSET 0.0 0.0 0.0
                          }
                        }
                      }
                    }
                    JOINT RightHandPinky1
                    {
                      OFFSET 8.03707 -0.8875299999999999 -2.6069600000000004
                      CHANNELS 3 Zrotation Xrotation Yrotation
                      JOINT RightHandPinky2
                      {
                        OFFSET 1.8462757142857142 0.0 0.0
                        CHANNELS 3 Zrotation Xrotation Yrotation
                        JOINT RightHandPinky3
                        {
                          OFFSET 1.8843400000000001 0.0 0.0
                          CHANNELS 3 Zrotation Xrotation Yrotation
                          End Site
                          {
                            OFFSET 0.0 0.0 0.0
                          }
                        }
                      }
                    }
                    JOINT RightHandIndex1
                    {
                      OFFSET 7.92262 -0.8855000000000002 2.31175
                      CHANNELS 3 Zrotation Xrotation Yrotation
                      JOINT RightHandIndex2
                      {
                        OFFSET 2.63761 0.0 0.0
                        CHANNELS 3 Zrotation Xrotation Yrotation
                        JOINT RightHandIndex3
                        {
                          OFFSET 2.16656 0.0 0.0
                          CHANNELS 3 Zrotation Xrotation Yrotation
                          End Site
                          {
                            OFFSET 0.0 0.0 0.0
                          }
                        }
                      }
                    }
                    JOINT RightHandThumb1
                    {
                      OFFSET 3.4769 0.059800000000000006 2.8878899999999996
                      CHANNELS 3 Zrotation Xrotation Yrotation
                      JOINT RightHandThumb2
                      {
                        OFFSET 2.7768599999999997 0.00010000000000000002 -2e-05
                        CHANNELS 3 Zrotation Xrotation Yrotation
                        JOINT RightHandThumb3
                        {
                          OFFSET 2.420578571428571 -9e-05 0.0
                          CHANNELS 3 Zrotation Xrotation Yrotation
                          End Site
                          {
                            OFFSET 0.0 0.0 0.0
                          }
                        }
                      }
                    }
                  }
                }
              }
            }
            JOINT LeftShoulder
            {
              OFFSET 2.3803400000000003 -1.29275 -3.7523014285714282
              CHANNELS 3 Zrotation Xrotation Yrotation
              JOINT LeftArm
              {
                OFFSET 16.3182 5.9999999999999995e-05 0.0
                CHANNELS 3 Zrotation Xrotation Yrotation
                JOINT LeftForeArm
                {
                  OFFSET 27.090100000000003 0.0 0.0
                  CHANNELS 3 Zrotation Xrotation Yrotation
                  JOINT LeftHand
                  {
                    OFFSET 24.545099999999998 2e-05 0.0
                    CHANNELS 3 Zrotation Xrotation Yrotation
                    JOINT LeftHandMiddle1
                    {
                      OFFSET 9.218019999999997 0.66582 0.5455300000000002
                      CHANNELS 3 Zrotation Xrotation Yrotation
                      JOINT LeftHandMiddle2
                      {
                        OFFSET 2.66255 0.0 0.0
                        CHANNELS 3 Zrotation Xrotation Yrotation
                        JOINT LeftHandMiddle3
                        {
                          OFFSET 2.2804 0.0 0.0
                          CHANNELS 3 Zrotation Xrotation Yrotation
                          End Site
                          {
                            OFFSET 0.0 0.0 0.0
                          }
                        }
                      }
                    }
                    JOINT LeftHandRing1
                    {
                      OFFSET 9.247749999999998 0.66519 -1.1266999999999998
                      CHANNELS 3 Zrotation Xrotation Yrotation
                      JOINT LeftHandRing2
                      {
                        OFFSET 2.4704099999999998 0.0 -2e-05
                        CHANNELS 3 Zrotation Xrotation Yrotation
                        JOINT LeftHandRing3
                        {
                          OFFSET 2.2054000000000005 0.0 0.0
                          CHANNELS 3 Zrotation Xrotation Yrotation
                          End Site
                          {
                            OFFSET 0.0 0.0 0.0
                          }
                        }
                      }
                    }
                    JOINT LeftHandPinky1
                    {
                      OFFSET 9.35383857142857 0.66301 -2.7233200000000006
                      CHANNELS 3 Zrotation Xrotation Yrotation
                      JOINT LeftHandPinky2
                      {
                        OFFSET 1.63407 0.0 0.0
                        CHANNELS 3 Zrotation Xrotation Yrotation
                        JOINT LeftHandPinky3
                        {
                          OFFSET 1.71176 0.0 0.0
                          CHANNELS 3 Zrotation Xrotation Yrotation
                          End Site
                          {
                            OFFSET 0.0 0.0 0.0
                          }
                        }
                      }
                    }
                    JOINT LeftHandIndex1
                    {
                      OFFSET 8.731608571428572 0.6758999999999998 2.0680099999999997
                      CHANNELS 3 Zrotation Xrotation Yrotation
                      JOINT LeftHandIndex2
                      {
                        OFFSET 2.6668899999999995 0.0 0.0
                        CHANNELS 3 Zrotation Xrotation Yrotation
                        JOINT LeftHandIndex3
                        {
                          OFFSET 2.12946 0.0 2e-05
                          CHANNELS 3 Zrotation Xrotation Yrotation
                          End Site
                          {
                            OFFSET 0.0 0.0 0.0
                          }
                        }
                      }
                    }
                    JOINT LeftHandThumb1
                    {
                      OFFSET 4.967354285714285 -0.62265 3.3958599999999994
                      CHANNELS 3 Zrotation Xrotation Yrotation
                      JOINT LeftHandThumb2
                      {
                        OFFSET 2.15386 2e-05 0.0
                        CHANNELS 3 Zrotation Xrotation Yrotation
                        JOINT LeftHandThumb3
                        {
                          OFFSET 2.1951099999999997 -2.9999999999999997e-05 2e-05
                          CHANNELS 3 Zrotation Xrotation Yrotation
                          End Site
                          {
                            OFFSET 0.0 0.0 0.0
                          }
                        }
                      }
                    }
                  }
                }
              }
            }
            JOINT Neck
            {
              OFFSET 5.0226 -0.026629999999999994 0.0
              CHANNELS 3 Zrotation Xrotation Yrotation
              JOINT Head
              {
                OFFSET 6.693637142857143 2.9999999999999997e-05 0.0
                CHANNELS 3 Zrotation Xrotation Yrotation
                End Site
                {
                  OFFSET 0.0 0.0 0.0
                }
              }
            }
          }
        }
      }
    }
  }
}
MOTION
Frames: 4
Frame Time: 0.03333333
107.002 90.2586 -29.5902 88.1554 -6.099820000000001 93.4887 -172.472 6.8016900000000025 88.4759 -8.18337 15.4504 -2.17652 69.1937 -11.2236 -5.4867 28.7808 4.89727e-06 1.41225e-05 165.74599999999998 1.5454000000000008 64.6809 -13.7273 -37.8231 -2.276 1.3011199999999974 1.79093 6.658530000000001 28.7808 1.2343699999999998e-05 2.268e-05 3.4355599999999997 6.4989 -94.5163 13.8338 4.94686 -6.90817 2.15279 4.63888 -7.118010000000002 -20.3679 6.791360000000001 -5.105580000000001 -0.35523600000000055 6.791350000000001 -5.105599999999999 92.4508 -35.2416 -100.35700000000001 27.4623 -22.3793 -28.6195 24.7581 -9.70303 -109.36700000000002 69.7245 44.0571 54.7147 -89.4039 88.9709 89.0936 -0.0604883 3.51036e-06 5.095580000000001e-07 -0.0639204 -6.90684e-06 -1.54487e-07 -89.3944 88.9811 89.0841 -1.1574200000000001 1.3753699999999998e-05 6.60094e-08 2.576 -2.41087e-05 5.72628e-07 -88.8572 89.3579 88.54700000000001 -1.14578 -1.0007699999999997e-05 6.14217e-05 1.1457700000000002 1.72332e-05 -1.8171499999999998e-08 -89.4226 88.9487 89.1123 0.40928600000000004 1.0393099999999999e-05 0.00047746400000000004 -0.6366 -6.89427e-06 -8.103069999999999e-08 104.36399999999999 40.5023 -88.8246 -7.66903 0.186169 -1.3504399999999999 -11.2634 -1.4893299999999999e-06 6.84493e-05 -95.0586 -49.906000000000006 71.192 -33.8461 -9.60731 -10.3843 2.1169899999999995 -8.159629999999998 -3.138219999999997 4.20369 2.84696 43.7319 -91.1873 -87.8289 -89.9988 3.4088800000000004 1.2235799999999999e-05 0.0035905999999999998 -0.95486 -9.39043e-06 -1.939e-06 -91.1863 -89.4015 -89.9978 2.85637 -2.1536700000000003e-06 0.00284305 -3.1684400000000004 -8.62828e-06 1.14801e-06 88.8084 -89.7171 89.9969 2.54481 4.5637e-06 0.00256788 -2.54482 -7.052260000000001e-06 5.742229999999997e-08 -91.1883 -86.1973 -89.9998 6.1310400000000005 3.52565e-06 0.00671033 -2.04542 3.0789599999999994e-06 -1.8514099999999996e-06 -101.949 -40.7242 -90.0694 10.0172 1.39688e-05 1.25802e-06 -2.6697599999999997 1.98088e-06 5.03767e-06 46.7735 -29.010899999999996 6.26596 -43.595299999999995 -26.203999999999997 -13.4042
107.139 90.2264 -29.8381 88.1993 -6.6967500000000015 93.5174 -172.50799999999998 6.49746 88.4369 -7.818439999999999 14.8282 -2.3694900000000003 69.6093 -11.734200000000001 -5.67962 28.7808 4.89727e-06 1.41225e-05 165.87099999999998 1.8557699999999997 64.7415 -13.884900000000002 -36.6118 -2.1975700000000002 0.9336390000000065 1.47959 6.1603699999999995 28.7808 1.2343699999999998e-05 2.268e-05 3.4541800000000005 6.49032 -94.5136 13.8485 4.9897 -6.853269999999999 2.1679499999999994 4.68404 -7.06522 -20.3564 6.81606 -5.04053 -0.3436870000000001 6.816039999999999 -5.04055 92.6736 -34.123000000000005 -100.24 24.3149 -20.8926 -38.6366 42.7444 -14.113 -105.16799999999998 52.4149 43.7367 71.4242 -89.4039 88.9709 89.0936 -0.0604883 3.51036e-06 5.095580000000001e-07 -0.0639204 -6.90684e-06 -1.54487e-07 -89.3944 88.9811 89.0841 -1.1574200000000001 1.3753699999999998e-05 6.60094e-08 2.576 -2.41087e-05 5.72628e-07 -88.8572 89.3579 88.54700000000001 -1.14578 -1.0007699999999997e-05 6.14217e-05 1.1457700000000002 1.72332e-05 -1.8171499999999998e-08 -89.4226 88.9487 89.1123 0.40928600000000004 1.0393099999999999e-05 0.00047746400000000004 -0.6366 -6.89427e-06 -8.103069999999999e-08 104.36399999999999 40.5023 -88.8246 -7.66903 0.186169 -1.3504399999999999 -11.2634 -1.4893299999999999e-06 6.84493e-05 -94.7927 -49.7965 71.5523 -33.7883 -9.620280000000001 -10.4454 2.11503 -8.27454 -3.1360600000000005 2.65101 2.2067500000000004 44.7527 -91.1873 -87.8289 -89.9988 3.4088800000000004 1.2235799999999999e-05 0.0035905999999999998 -0.95486 -9.39043e-06 -1.939e-06 -91.1863 -89.4015 -89.9978 2.85637 -2.1536700000000003e-06 0.00284305 -3.1684400000000004 -8.62828e-06 1.14801e-06 88.8084 -89.7171 89.9969 2.54481 4.5637e-06 0.00256788 -2.54482 -7.052260000000001e-06 5.742229999999997e-08 -91.1883 -86.1973 -89.9998 6.1310400000000005 3.52565e-06 0.00671033 -2.04542 3.0789599999999994e-06 -1.8514099999999996e-06 -101.949 -40.7242 -90.0694 10.0172 1.39688e-05 1.25802e-06 -2.6697599999999997 1.98088e-06 5.03767e-06 46.4638 -29.411700000000003 5.86092 -43.6074 -26.486199999999997 -13.0757
107.25299999999997 90.2024 -30.052699999999998 88.3243 -7.372630000000001 93.514 -172.543 6.127659999999999 88.3884 -7.4787 14.1592 -2.55571 69.98899999999999 -12.1957 -5.85117 28.7808 4.89727e-06 1.41225e-05 165.93400000000003 2.2398300000000013 64.6839 -14.0957 -35.9286 -2.15578 0.5959709999999987 1.2631799999999997 5.82942 28.7808 1.2343699999999998e-05 2.268e-05 3.4580599999999997 6.49108 -94.5239 13.8437 5.0096099999999995 -6.811899999999999 2.1634 4.70558 -7.02477 -20.3625 6.823639999999999 -4.99489 -0.3498070000000002 6.82362 -4.994909999999999 93.0829 -32.2232 -99.9657 26.3186 -23.076299999999996 -65.9609 72.8666 17.3558 -89.0039 33.8659 52.9477 111.525 -89.4039 88.9709 89.0936 -0.0604883 3.51036e-06 5.095580000000001e-07 -0.0639204 -6.90684e-06 -1.54487e-07 -89.3944 88.9811 89.0841 -1.1574200000000001 1.3753699999999998e-05 6.60094e-08 2.576 -2.41087e-05 5.72628e-07 -88.8572 89.3579 88.54700000000001 -1.14578 -1.0007699999999997e-05 6.14217e-05 1.1457700000000002 1.72332e-05 -1.8171499999999998e-08 -89.4226 88.9487 89.1123 0.40928600000000004 1.0393099999999999e-05 0.00047746400000000004 -0.6366 -6.89427e-06 -8.103069999999999e-08 104.36399999999999 40.5023 -88.8246 -7.66903 0.186169 -1.3504399999999999 -11.2634 -1.4893299999999999e-06 6.84493e-05 -94.8 -49.7986 71.542 -33.5511 -9.721210000000001 -10.433 2.10241 -9.019899999999998 -3.1247199999999964 1.4349800000000001 1.69566 45.8816 -91.1873 -87.8289 -89.9988 3.4088800000000004 1.2235799999999999e-05 0.0035905999999999998 -0.95486 -9.39043e-06 -1.939e-06 -91.1863 -89.4015 -89.9978 2.85637 -2.1536700000000003e-06 0.00284305 -3.1684400000000004 -8.62828e-06 1.14801e-06 88.8084 -89.7171 89.9969 2.54481 4.5637e-06 0.00256788 -2.54482 -7.052260000000001e-06 5.742229999999997e-08 -91.1883 -86.1973 -89.9998 6.1310400000000005 3.52565e-06 0.00671033 -2.04542 3.0789599999999994e-06 -1.8514099999999996e-06 -101.949 -40.7242 -90.0694 10.0172 1.39688e-05 1.25802e-06 -2.6697599999999997 1.98088e-06 5.03767e-06 46.1726 -29.5213 5.81855 -43.6117 -26.654399999999995 -12.8477
107.34200000000003 90.16799999999999 -30.269000000000002 88.5561 -7.912620000000002 93.4939 -172.62 5.81166 88.2796 -7.453050000000001 13.4715 -2.7095599999999997 70.6108 -12.6554 -5.98134 28.7808 4.89727e-06 1.41225e-05 165.91899999999998 2.534980000000001 64.4965 -14.352600000000002 -35.7358 -2.146 0.4742690000000067 1.1094300000000001 5.57541 28.7808 1.2343699999999998e-05 2.268e-05 3.4245 6.51398 -94.5133 13.7924 4.97405 -6.7194600000000015 2.11251 4.67436 -6.930989999999999 -20.4153 6.76012 -4.91662 -0.40259199999999984 6.76014 -4.91663 93.5077 -30.8406 -99.5691 41.233999999999995 -42.6426 -102.353 36.7066 85.8556 -42.8068 -26.1496 54.1972 -135.585 -89.4039 88.9709 89.0936 -0.0604883 3.51036e-06 5.095580000000001e-07 -0.0639204 -6.90684e-06 -1.54487e-07 -89.3944 88.9811 89.0841 -1.1574200000000001 1.3753699999999998e-05 6.60094e-08 2.576 -2.41087e-05 5.72628e-07 -88.8572 89.3579 88.54700000000001 -1.14578 -1.0007699999999997e-05 6.14217e-05 1.1457700000000002 1.72332e-05 -1.8171499999999998e-08 -89.4226 88.9487 89.1123 0.40928600000000004 1.0393099999999999e-05 0.00047746400000000004 -0.6366 -6.89427e-06 -8.103069999999999e-08 104.36399999999999 40.5023 -88.8246 -7.66903 0.186169 -1.3504399999999999 -11.2634 -1.4893299999999999e-06 6.84493e-05 -94.5002 -49.7126 71.9661 -33.2234 -9.53611 -7.744490000000001 1.14858 -9.62006 -8.786279999999998 0.3238129999999999 1.26039 49.1468 -91.1873 -87.8289 -89.9988 3.4088800000000004 1.2235799999999999e-05 0.0035905999999999998 -0.95486 -9.39043e-06 -1.939e-06 -91.1863 -89.4015 -89.9978 2.85637 -2.1536700000000003e-06 0.00284305 -3.1684400000000004 -8.62828e-06 1.14801e-06 88.8084 -89.7171 89.9969 2.54481 4.5637e-06 0.00256788 -2.54482 -7.052260000000001e-06 5.742229999999997e-08 -91.1883 -86.1973 -89.9998 6.1310400000000005 3.52565e-06 0.00671033 -2.04542 3.0789599999999994e-06 -1.8514099999999996e-06 -101.949 -40.7242 -90.0694 10.0172 1.39688e-05 1.25802e-06 -2.6697599999999997 1.98088e-06 5.03767e-06 46.2041 -29.6903 5.475 -43.7142 -26.831500000000002 -12.1622
